<mxfile host="app.diagrams.net" version="24.8.3">
  <diagram id="C5RBs43oDa-KdzZeNtuy" name="Page-1">
    <mxGraphModel dx="2020" dy="1962" grid="1" gridSize="10" guides="1" tooltips="1" connect="1" arrows="1" fold="1" page="1" pageScale="1" pageWidth="827" pageHeight="1169" math="0" shadow="0">
      <root>
        <mxCell id="WIyWlLk6GJQsqaUBKTNV-0" />
        <mxCell id="WIyWlLk6GJQsqaUBKTNV-1" parent="WIyWlLk6GJQsqaUBKTNV-0" />
        <mxCell id="EGYxJaUcRb2EbcvkK3KS-4" value="&lt;div&gt;PlayerAccount&lt;/div&gt;" style="swimlane;fontStyle=0;childLayout=stackLayout;horizontal=1;startSize=26;fillColor=none;horizontalStack=0;resizeParent=1;resizeParentMax=0;resizeLast=0;collapsible=1;marginBottom=0;whiteSpace=wrap;html=1;" vertex="1" parent="WIyWlLk6GJQsqaUBKTNV-1">
          <mxGeometry x="230" y="240" width="240" height="128" as="geometry" />
        </mxCell>
        <mxCell id="EGYxJaUcRb2EbcvkK3KS-5" value="+ id: INT" style="text;strokeColor=none;fillColor=none;align=left;verticalAlign=top;spacingLeft=4;spacingRight=4;overflow=hidden;rotatable=0;points=[[0,0.5],[1,0.5]];portConstraint=eastwest;whiteSpace=wrap;html=1;fontStyle=5" vertex="1" parent="EGYxJaUcRb2EbcvkK3KS-4">
          <mxGeometry y="26" width="240" height="26" as="geometry" />
        </mxCell>
        <mxCell id="EGYxJaUcRb2EbcvkK3KS-6" value="+ player_uuid: BINARY(16)&lt;br&gt;UNIQUE" style="text;strokeColor=none;fillColor=none;align=left;verticalAlign=top;spacingLeft=4;spacingRight=4;overflow=hidden;rotatable=0;points=[[0,0.5],[1,0.5]];portConstraint=eastwest;whiteSpace=wrap;html=1;" vertex="1" parent="EGYxJaUcRb2EbcvkK3KS-4">
          <mxGeometry y="52" width="240" height="38" as="geometry" />
        </mxCell>
        <mxCell id="EGYxJaUcRb2EbcvkK3KS-38" value="+ name_last_updated: DATETIME" style="text;strokeColor=none;fillColor=none;align=left;verticalAlign=top;spacingLeft=4;spacingRight=4;overflow=hidden;rotatable=0;points=[[0,0.5],[1,0.5]];portConstraint=eastwest;whiteSpace=wrap;html=1;" vertex="1" parent="EGYxJaUcRb2EbcvkK3KS-4">
          <mxGeometry y="90" width="240" height="38" as="geometry" />
        </mxCell>
        <mxCell id="EGYxJaUcRb2EbcvkK3KS-8" value="NonPlayerAccount" style="swimlane;fontStyle=0;childLayout=stackLayout;horizontal=1;startSize=26;fillColor=none;horizontalStack=0;resizeParent=1;resizeParentMax=0;resizeLast=0;collapsible=1;marginBottom=0;whiteSpace=wrap;html=1;" vertex="1" parent="WIyWlLk6GJQsqaUBKTNV-1">
          <mxGeometry x="-375" y="280" width="210" height="90" as="geometry" />
        </mxCell>
        <mxCell id="EGYxJaUcRb2EbcvkK3KS-9" value="+ id: INT" style="text;strokeColor=none;fillColor=none;align=left;verticalAlign=top;spacingLeft=4;spacingRight=4;overflow=hidden;rotatable=0;points=[[0,0.5],[1,0.5]];portConstraint=eastwest;whiteSpace=wrap;html=1;fontStyle=5" vertex="1" parent="EGYxJaUcRb2EbcvkK3KS-8">
          <mxGeometry y="26" width="210" height="26" as="geometry" />
        </mxCell>
        <mxCell id="EGYxJaUcRb2EbcvkK3KS-33" value="+ namespaced_key VARCHAR(64)&lt;br&gt;UNIQUE" style="text;strokeColor=none;fillColor=none;align=left;verticalAlign=top;spacingLeft=4;spacingRight=4;overflow=hidden;rotatable=0;points=[[0,0.5],[1,0.5]];portConstraint=eastwest;whiteSpace=wrap;html=1;fontStyle=0" vertex="1" parent="EGYxJaUcRb2EbcvkK3KS-8">
          <mxGeometry y="52" width="210" height="38" as="geometry" />
        </mxCell>
        <mxCell id="EGYxJaUcRb2EbcvkK3KS-16" value="NonPlayerAccountMember" style="swimlane;fontStyle=0;childLayout=stackLayout;horizontal=1;startSize=26;fillColor=none;horizontalStack=0;resizeParent=1;resizeParentMax=0;resizeLast=0;collapsible=1;marginBottom=0;whiteSpace=wrap;html=1;" vertex="1" parent="WIyWlLk6GJQsqaUBKTNV-1">
          <mxGeometry x="-40" y="400" width="200" height="182" as="geometry" />
        </mxCell>
        <mxCell id="EGYxJaUcRb2EbcvkK3KS-17" value="+ account_id: INT" style="text;strokeColor=none;fillColor=none;align=left;verticalAlign=top;spacingLeft=4;spacingRight=4;overflow=hidden;rotatable=0;points=[[0,0.5],[1,0.5]];portConstraint=eastwest;whiteSpace=wrap;html=1;fontStyle=5" vertex="1" parent="EGYxJaUcRb2EbcvkK3KS-16">
          <mxGeometry y="26" width="200" height="26" as="geometry" />
        </mxCell>
        <mxCell id="EGYxJaUcRb2EbcvkK3KS-18" value="+ member_id: INT" style="text;strokeColor=none;fillColor=none;align=left;verticalAlign=top;spacingLeft=4;spacingRight=4;overflow=hidden;rotatable=0;points=[[0,0.5],[1,0.5]];portConstraint=eastwest;whiteSpace=wrap;html=1;fontStyle=5" vertex="1" parent="EGYxJaUcRb2EbcvkK3KS-16">
          <mxGeometry y="52" width="200" height="26" as="geometry" />
        </mxCell>
        <mxCell id="EGYxJaUcRb2EbcvkK3KS-22" value="+ perm_balance: BOOL?" style="text;strokeColor=none;fillColor=none;align=left;verticalAlign=top;spacingLeft=4;spacingRight=4;overflow=hidden;rotatable=0;points=[[0,0.5],[1,0.5]];portConstraint=eastwest;whiteSpace=wrap;html=1;fontStyle=0" vertex="1" parent="EGYxJaUcRb2EbcvkK3KS-16">
          <mxGeometry y="78" width="200" height="26" as="geometry" />
        </mxCell>
        <mxCell id="EGYxJaUcRb2EbcvkK3KS-24" value="+ perm_withdraw: BOOL?" style="text;strokeColor=none;fillColor=none;align=left;verticalAlign=top;spacingLeft=4;spacingRight=4;overflow=hidden;rotatable=0;points=[[0,0.5],[1,0.5]];portConstraint=eastwest;whiteSpace=wrap;html=1;fontStyle=0" vertex="1" parent="EGYxJaUcRb2EbcvkK3KS-16">
          <mxGeometry y="104" width="200" height="26" as="geometry" />
        </mxCell>
        <mxCell id="EGYxJaUcRb2EbcvkK3KS-25" value="+ perm_deposit: BOOL?" style="text;strokeColor=none;fillColor=none;align=left;verticalAlign=top;spacingLeft=4;spacingRight=4;overflow=hidden;rotatable=0;points=[[0,0.5],[1,0.5]];portConstraint=eastwest;whiteSpace=wrap;html=1;fontStyle=0" vertex="1" parent="EGYxJaUcRb2EbcvkK3KS-16">
          <mxGeometry y="130" width="200" height="26" as="geometry" />
        </mxCell>
        <mxCell id="EGYxJaUcRb2EbcvkK3KS-26" value="+ perm_modify_perms: BOOL?" style="text;strokeColor=none;fillColor=none;align=left;verticalAlign=top;spacingLeft=4;spacingRight=4;overflow=hidden;rotatable=0;points=[[0,0.5],[1,0.5]];portConstraint=eastwest;whiteSpace=wrap;html=1;fontStyle=0" vertex="1" parent="EGYxJaUcRb2EbcvkK3KS-16">
          <mxGeometry y="156" width="200" height="26" as="geometry" />
        </mxCell>
        <mxCell id="EGYxJaUcRb2EbcvkK3KS-20" value="&lt;div&gt;&lt;br&gt;&lt;/div&gt;" style="edgeStyle=orthogonalEdgeStyle;rounded=0;orthogonalLoop=1;jettySize=auto;html=1;" edge="1" parent="WIyWlLk6GJQsqaUBKTNV-1" source="EGYxJaUcRb2EbcvkK3KS-17" target="EGYxJaUcRb2EbcvkK3KS-9">
          <mxGeometry relative="1" as="geometry" />
        </mxCell>
        <mxCell id="EGYxJaUcRb2EbcvkK3KS-21" style="edgeStyle=orthogonalEdgeStyle;rounded=0;orthogonalLoop=1;jettySize=auto;html=1;entryX=0;entryY=0.5;entryDx=0;entryDy=0;" edge="1" parent="WIyWlLk6GJQsqaUBKTNV-1" source="EGYxJaUcRb2EbcvkK3KS-18" target="EGYxJaUcRb2EbcvkK3KS-5">
          <mxGeometry relative="1" as="geometry" />
        </mxCell>
        <mxCell id="EGYxJaUcRb2EbcvkK3KS-27" value="Currency" style="swimlane;fontStyle=0;childLayout=stackLayout;horizontal=1;startSize=26;fillColor=none;horizontalStack=0;resizeParent=1;resizeParentMax=0;resizeLast=0;collapsible=1;marginBottom=0;whiteSpace=wrap;html=1;" vertex="1" parent="WIyWlLk6GJQsqaUBKTNV-1">
          <mxGeometry x="20" y="-290" width="140" height="90" as="geometry" />
        </mxCell>
        <mxCell id="EGYxJaUcRb2EbcvkK3KS-28" value="&lt;b&gt;&lt;u&gt;+ id: INT&lt;br&gt;&lt;/u&gt;&lt;/b&gt;" style="text;strokeColor=none;fillColor=none;align=left;verticalAlign=top;spacingLeft=4;spacingRight=4;overflow=hidden;rotatable=0;points=[[0,0.5],[1,0.5]];portConstraint=eastwest;whiteSpace=wrap;html=1;" vertex="1" parent="EGYxJaUcRb2EbcvkK3KS-27">
          <mxGeometry y="26" width="140" height="26" as="geometry" />
        </mxCell>
        <mxCell id="EGYxJaUcRb2EbcvkK3KS-29" value="+ name: VARCHAR(64)&lt;br&gt;UNIQUE" style="text;strokeColor=none;fillColor=none;align=left;verticalAlign=top;spacingLeft=4;spacingRight=4;overflow=hidden;rotatable=0;points=[[0,0.5],[1,0.5]];portConstraint=eastwest;whiteSpace=wrap;html=1;" vertex="1" parent="EGYxJaUcRb2EbcvkK3KS-27">
          <mxGeometry y="52" width="140" height="38" as="geometry" />
        </mxCell>
        <mxCell id="EGYxJaUcRb2EbcvkK3KS-40" value="Account" style="swimlane;fontStyle=0;childLayout=stackLayout;horizontal=1;startSize=26;fillColor=none;horizontalStack=0;resizeParent=1;resizeParentMax=0;resizeLast=0;collapsible=1;marginBottom=0;whiteSpace=wrap;html=1;" vertex="1" parent="WIyWlLk6GJQsqaUBKTNV-1">
          <mxGeometry x="-10" y="80" width="140" height="78" as="geometry" />
        </mxCell>
        <mxCell id="EGYxJaUcRb2EbcvkK3KS-41" value="&lt;b&gt;&lt;u&gt;+ id: INT&lt;br&gt;&lt;/u&gt;&lt;/b&gt;" style="text;strokeColor=none;fillColor=none;align=left;verticalAlign=top;spacingLeft=4;spacingRight=4;overflow=hidden;rotatable=0;points=[[0,0.5],[1,0.5]];portConstraint=eastwest;whiteSpace=wrap;html=1;" vertex="1" parent="EGYxJaUcRb2EbcvkK3KS-40">
          <mxGeometry y="26" width="140" height="26" as="geometry" />
        </mxCell>
        <mxCell id="EGYxJaUcRb2EbcvkK3KS-42" value="+ name: VARCHAR(64)" style="text;strokeColor=none;fillColor=none;align=left;verticalAlign=top;spacingLeft=4;spacingRight=4;overflow=hidden;rotatable=0;points=[[0,0.5],[1,0.5]];portConstraint=eastwest;whiteSpace=wrap;html=1;" vertex="1" parent="EGYxJaUcRb2EbcvkK3KS-40">
          <mxGeometry y="52" width="140" height="26" as="geometry" />
        </mxCell>
        <mxCell id="EGYxJaUcRb2EbcvkK3KS-44" style="edgeStyle=orthogonalEdgeStyle;rounded=0;orthogonalLoop=1;jettySize=auto;html=1;entryX=0;entryY=0.5;entryDx=0;entryDy=0;" edge="1" parent="WIyWlLk6GJQsqaUBKTNV-1" source="EGYxJaUcRb2EbcvkK3KS-9" target="EGYxJaUcRb2EbcvkK3KS-41">
          <mxGeometry relative="1" as="geometry" />
        </mxCell>
        <mxCell id="EGYxJaUcRb2EbcvkK3KS-45" style="edgeStyle=orthogonalEdgeStyle;rounded=0;orthogonalLoop=1;jettySize=auto;html=1;exitX=0;exitY=0.5;exitDx=0;exitDy=0;entryX=1;entryY=0.5;entryDx=0;entryDy=0;" edge="1" parent="WIyWlLk6GJQsqaUBKTNV-1" source="EGYxJaUcRb2EbcvkK3KS-5" target="EGYxJaUcRb2EbcvkK3KS-41">
          <mxGeometry relative="1" as="geometry" />
        </mxCell>
        <mxCell id="EGYxJaUcRb2EbcvkK3KS-46" value="AccountBalance" style="swimlane;fontStyle=0;childLayout=stackLayout;horizontal=1;startSize=26;fillColor=none;horizontalStack=0;resizeParent=1;resizeParentMax=0;resizeLast=0;collapsible=1;marginBottom=0;whiteSpace=wrap;html=1;" vertex="1" parent="WIyWlLk6GJQsqaUBKTNV-1">
          <mxGeometry x="-10" y="-110" width="180" height="104" as="geometry" />
        </mxCell>
        <mxCell id="EGYxJaUcRb2EbcvkK3KS-47" value="+ account_id: INT" style="text;strokeColor=none;fillColor=none;align=left;verticalAlign=top;spacingLeft=4;spacingRight=4;overflow=hidden;rotatable=0;points=[[0,0.5],[1,0.5]];portConstraint=eastwest;whiteSpace=wrap;html=1;fontStyle=5" vertex="1" parent="EGYxJaUcRb2EbcvkK3KS-46">
          <mxGeometry y="26" width="180" height="26" as="geometry" />
        </mxCell>
        <mxCell id="EGYxJaUcRb2EbcvkK3KS-48" value="+ currency_id: INT" style="text;strokeColor=none;fillColor=none;align=left;verticalAlign=top;spacingLeft=4;spacingRight=4;overflow=hidden;rotatable=0;points=[[0,0.5],[1,0.5]];portConstraint=eastwest;whiteSpace=wrap;html=1;fontStyle=5" vertex="1" parent="EGYxJaUcRb2EbcvkK3KS-46">
          <mxGeometry y="52" width="180" height="26" as="geometry" />
        </mxCell>
        <mxCell id="EGYxJaUcRb2EbcvkK3KS-49" value="+ amount: DECIMAL(18, 4)" style="text;strokeColor=none;fillColor=none;align=left;verticalAlign=top;spacingLeft=4;spacingRight=4;overflow=hidden;rotatable=0;points=[[0,0.5],[1,0.5]];portConstraint=eastwest;whiteSpace=wrap;html=1;fontStyle=0" vertex="1" parent="EGYxJaUcRb2EbcvkK3KS-46">
          <mxGeometry y="78" width="180" height="26" as="geometry" />
        </mxCell>
        <mxCell id="EGYxJaUcRb2EbcvkK3KS-50" style="edgeStyle=orthogonalEdgeStyle;rounded=0;orthogonalLoop=1;jettySize=auto;html=1;exitX=0;exitY=0.5;exitDx=0;exitDy=0;entryX=0;entryY=0.5;entryDx=0;entryDy=0;" edge="1" parent="WIyWlLk6GJQsqaUBKTNV-1" source="EGYxJaUcRb2EbcvkK3KS-47" target="EGYxJaUcRb2EbcvkK3KS-41">
          <mxGeometry relative="1" as="geometry" />
        </mxCell>
        <mxCell id="EGYxJaUcRb2EbcvkK3KS-52" value="AccountTransaction" style="swimlane;fontStyle=0;childLayout=stackLayout;horizontal=1;startSize=26;fillColor=none;horizontalStack=0;resizeParent=1;resizeParentMax=0;resizeLast=0;collapsible=1;marginBottom=0;whiteSpace=wrap;html=1;" vertex="1" parent="WIyWlLk6GJQsqaUBKTNV-1">
          <mxGeometry x="-370" y="-30" width="200" height="260" as="geometry" />
        </mxCell>
        <mxCell id="EGYxJaUcRb2EbcvkK3KS-53" value="&lt;b&gt;&lt;u&gt;+ id: INT&lt;br&gt;&lt;/u&gt;&lt;/b&gt;" style="text;strokeColor=none;fillColor=none;align=left;verticalAlign=top;spacingLeft=4;spacingRight=4;overflow=hidden;rotatable=0;points=[[0,0.5],[1,0.5]];portConstraint=eastwest;whiteSpace=wrap;html=1;" vertex="1" parent="EGYxJaUcRb2EbcvkK3KS-52">
          <mxGeometry y="26" width="200" height="26" as="geometry" />
        </mxCell>
        <mxCell id="EGYxJaUcRb2EbcvkK3KS-54" value="+ for: INT" style="text;strokeColor=none;fillColor=none;align=left;verticalAlign=top;spacingLeft=4;spacingRight=4;overflow=hidden;rotatable=0;points=[[0,0.5],[1,0.5]];portConstraint=eastwest;whiteSpace=wrap;html=1;" vertex="1" parent="EGYxJaUcRb2EbcvkK3KS-52">
          <mxGeometry y="52" width="200" height="26" as="geometry" />
        </mxCell>
        <mxCell id="EGYxJaUcRb2EbcvkK3KS-55" value="+ by: INT?" style="text;strokeColor=none;fillColor=none;align=left;verticalAlign=top;spacingLeft=4;spacingRight=4;overflow=hidden;rotatable=0;points=[[0,0.5],[1,0.5]];portConstraint=eastwest;whiteSpace=wrap;html=1;" vertex="1" parent="EGYxJaUcRb2EbcvkK3KS-52">
          <mxGeometry y="78" width="200" height="26" as="geometry" />
        </mxCell>
        <mxCell id="EGYxJaUcRb2EbcvkK3KS-62" value="+ amount: DECIMAL(18, 4)" style="text;strokeColor=none;fillColor=none;align=left;verticalAlign=top;spacingLeft=4;spacingRight=4;overflow=hidden;rotatable=0;points=[[0,0.5],[1,0.5]];portConstraint=eastwest;whiteSpace=wrap;html=1;" vertex="1" parent="EGYxJaUcRb2EbcvkK3KS-52">
          <mxGeometry y="104" width="200" height="26" as="geometry" />
        </mxCell>
        <mxCell id="EGYxJaUcRb2EbcvkK3KS-61" value="+ currency: INT" style="text;strokeColor=none;fillColor=none;align=left;verticalAlign=top;spacingLeft=4;spacingRight=4;overflow=hidden;rotatable=0;points=[[0,0.5],[1,0.5]];portConstraint=eastwest;whiteSpace=wrap;html=1;" vertex="1" parent="EGYxJaUcRb2EbcvkK3KS-52">
          <mxGeometry y="130" width="200" height="26" as="geometry" />
        </mxCell>
        <mxCell id="EGYxJaUcRb2EbcvkK3KS-60" value="+ cause: SMALLINT" style="text;strokeColor=none;fillColor=none;align=left;verticalAlign=top;spacingLeft=4;spacingRight=4;overflow=hidden;rotatable=0;points=[[0,0.5],[1,0.5]];portConstraint=eastwest;whiteSpace=wrap;html=1;" vertex="1" parent="EGYxJaUcRb2EbcvkK3KS-52">
          <mxGeometry y="156" width="200" height="26" as="geometry" />
        </mxCell>
        <mxCell id="EGYxJaUcRb2EbcvkK3KS-59" value="+ reason: VARCHAR(256)?" style="text;strokeColor=none;fillColor=none;align=left;verticalAlign=top;spacingLeft=4;spacingRight=4;overflow=hidden;rotatable=0;points=[[0,0.5],[1,0.5]];portConstraint=eastwest;whiteSpace=wrap;html=1;" vertex="1" parent="EGYxJaUcRb2EbcvkK3KS-52">
          <mxGeometry y="182" width="200" height="26" as="geometry" />
        </mxCell>
        <mxCell id="EGYxJaUcRb2EbcvkK3KS-58" value="+ importance: SMALLINT" style="text;strokeColor=none;fillColor=none;align=left;verticalAlign=top;spacingLeft=4;spacingRight=4;overflow=hidden;rotatable=0;points=[[0,0.5],[1,0.5]];portConstraint=eastwest;whiteSpace=wrap;html=1;" vertex="1" parent="EGYxJaUcRb2EbcvkK3KS-52">
          <mxGeometry y="208" width="200" height="26" as="geometry" />
        </mxCell>
        <mxCell id="EGYxJaUcRb2EbcvkK3KS-67" value="+ method: SMALLINT (set, deposit, withdraw, etc)" style="text;strokeColor=none;fillColor=none;align=left;verticalAlign=top;spacingLeft=4;spacingRight=4;overflow=hidden;rotatable=0;points=[[0,0.5],[1,0.5]];portConstraint=eastwest;whiteSpace=wrap;html=1;" vertex="1" parent="EGYxJaUcRb2EbcvkK3KS-52">
          <mxGeometry y="234" width="200" height="26" as="geometry" />
        </mxCell>
        <mxCell id="EGYxJaUcRb2EbcvkK3KS-56" style="edgeStyle=orthogonalEdgeStyle;rounded=0;orthogonalLoop=1;jettySize=auto;html=1;entryX=0;entryY=0.5;entryDx=0;entryDy=0;" edge="1" parent="WIyWlLk6GJQsqaUBKTNV-1" source="EGYxJaUcRb2EbcvkK3KS-54" target="EGYxJaUcRb2EbcvkK3KS-41">
          <mxGeometry relative="1" as="geometry" />
        </mxCell>
        <mxCell id="EGYxJaUcRb2EbcvkK3KS-57" style="edgeStyle=orthogonalEdgeStyle;rounded=0;orthogonalLoop=1;jettySize=auto;html=1;entryX=0;entryY=0.5;entryDx=0;entryDy=0;" edge="1" parent="WIyWlLk6GJQsqaUBKTNV-1" source="EGYxJaUcRb2EbcvkK3KS-55" target="EGYxJaUcRb2EbcvkK3KS-41">
          <mxGeometry relative="1" as="geometry" />
        </mxCell>
        <mxCell id="EGYxJaUcRb2EbcvkK3KS-65" style="edgeStyle=orthogonalEdgeStyle;rounded=0;orthogonalLoop=1;jettySize=auto;html=1;exitX=1;exitY=0.5;exitDx=0;exitDy=0;entryX=1;entryY=0.5;entryDx=0;entryDy=0;" edge="1" parent="WIyWlLk6GJQsqaUBKTNV-1" source="EGYxJaUcRb2EbcvkK3KS-28" target="EGYxJaUcRb2EbcvkK3KS-47">
          <mxGeometry relative="1" as="geometry">
            <Array as="points">
              <mxPoint x="210" y="-251" />
              <mxPoint x="210" y="-71" />
            </Array>
          </mxGeometry>
        </mxCell>
        <mxCell id="EGYxJaUcRb2EbcvkK3KS-66" style="edgeStyle=orthogonalEdgeStyle;rounded=0;orthogonalLoop=1;jettySize=auto;html=1;exitX=0;exitY=0.5;exitDx=0;exitDy=0;entryX=0;entryY=0.5;entryDx=0;entryDy=0;" edge="1" parent="WIyWlLk6GJQsqaUBKTNV-1" source="EGYxJaUcRb2EbcvkK3KS-28" target="EGYxJaUcRb2EbcvkK3KS-61">
          <mxGeometry relative="1" as="geometry" />
        </mxCell>
      </root>
    </mxGraphModel>
  </diagram>
</mxfile>
